<svg class="icon" style="width: 5em;height: 5em;vertical-align: middle;fill: currentColor;overflow: hidden;" viewBox="0 0 1024 1024" version="1.1" xmlns="http://www.w3.org/2000/svg" p-id="46156"><path d="M1024 512q0 12.515556-0.568889 25.144889-0.682667 12.515556-1.877333 25.031111-1.251556 12.515556-3.072 24.974222-1.877333 12.401778-4.323556 24.746667-2.446222 12.288-5.518222 24.462222-3.015111 12.231111-6.656 24.291556-3.697778 12.003556-7.964444 23.836444-4.152889 11.832889-8.988445 23.438222t-10.24 22.983111q-5.347556 11.377778-11.264 22.471112-5.916444 11.036444-12.344889 21.845333-6.485333 10.808889-13.482666 21.219555-6.997333 10.467556-14.449778 20.536889-7.509333 10.126222-15.473778 19.797334-7.964444 9.728-16.384 19.057777-8.476444 9.329778-17.351111 18.204445t-18.204445 17.351111q-9.329778 8.419556-19.057777 16.384-9.671111 7.964444-19.797334 15.473778-10.069333 7.452444-20.48 14.449778-10.524444 6.997333-21.276444 13.482666-10.808889 6.428444-21.845333 12.344889-11.093333 5.916444-22.471112 11.320889-11.377778 5.347556-22.983111 10.183111-11.605333 4.778667-23.438222 9.045333-11.832889 4.209778-23.893333 7.907556-11.946667 3.640889-24.177778 6.656-12.174222 3.072-24.519111 5.518222-12.344889 2.446222-24.746667 4.323556-12.458667 1.820444-24.974222 3.072-12.515556 1.194667-25.031111 1.820444Q524.515556 1024 512 1024q-12.515556 0-25.144889-0.568889-12.515556-0.682667-25.031111-1.877333-12.515556-1.251556-24.974222-3.072-12.401778-1.877333-24.746667-4.323556t-24.462222-5.518222q-12.231111-3.015111-24.291556-6.656-12.003556-3.697778-23.836444-7.964444-11.832889-4.152889-23.438222-8.988445t-22.983111-10.24q-11.377778-5.347556-22.471112-11.264-11.036444-5.916444-21.845333-12.344889-10.808889-6.485333-21.219555-13.482666-10.467556-6.997333-20.536889-14.449778-10.126222-7.509333-19.854223-15.473778-9.671111-7.964444-19.000888-16.384-9.329778-8.476444-18.204445-17.351111t-17.351111-18.204445q-8.419556-9.329778-16.384-19.057777-7.964444-9.671111-15.473778-19.797334-7.452444-10.069333-14.449778-20.48-6.997333-10.524444-13.482666-21.276444-6.428444-10.808889-12.344889-21.845333-5.916444-11.093333-11.320889-22.471112-5.347556-11.377778-10.183111-22.983111-4.778667-11.605333-9.045333-23.438222-4.209778-11.832889-7.850667-23.893333-3.697778-11.946667-6.712889-24.177778-3.072-12.174222-5.518222-24.519111-2.446222-12.344889-4.323556-24.746667-1.820444-12.458667-3.072-24.974222-1.194667-12.515556-1.820444-25.031111Q0 524.515556 0 512q0-12.515556 0.568889-25.144889 0.682667-12.515556 1.877333-25.031111 1.251556-12.515556 3.072-24.974222 1.877333-12.401778 4.323556-24.746667t5.518222-24.462222q3.015111-12.231111 6.712889-24.291556 3.640889-12.003556 7.850667-23.836444 4.266667-11.832889 9.102222-23.438222 4.778667-11.605333 10.126222-22.983111 5.404444-11.377778 11.320889-22.471112 5.916444-11.036444 12.344889-21.845333 6.485333-10.808889 13.482666-21.219555 6.997333-10.467556 14.449778-20.536889 7.509333-10.126222 15.473778-19.854223 7.964444-9.671111 16.384-19.000888 8.476444-9.329778 17.351111-18.204445t18.204445-17.351111q9.329778-8.419556 19.000888-16.384 9.728-7.964444 19.854223-15.473778 10.069333-7.452444 20.48-14.449778 10.524444-6.997333 21.276444-13.482666 10.808889-6.428444 21.845333-12.344889 11.093333-5.916444 22.471112-11.320889 11.377778-5.347556 22.983111-10.183111 11.605333-4.778667 23.438222-9.045333 11.832889-4.209778 23.893333-7.850667 11.946667-3.697778 24.177778-6.712889 12.174222-3.072 24.519111-5.518222 12.344889-2.446222 24.746667-4.323556 12.458667-1.820444 24.974222-3.072 12.515556-1.194667 25.031111-1.820444Q499.484444 0 512 0q12.515556 0 25.144889 0.568889 12.515556 0.682667 25.031111 1.877333 12.515556 1.251556 24.974222 3.072 12.401778 1.877333 24.746667 4.323556 12.288 2.446222 24.462222 5.518222 12.231111 3.015111 24.291556 6.712889 12.003556 3.640889 23.836444 7.850667 11.832889 4.266667 23.438222 9.102222 11.605333 4.778667 22.983111 10.126222 11.377778 5.404444 22.471112 11.320889 11.036444 5.916444 21.845333 12.344889 10.808889 6.485333 21.219555 13.482666 10.467556 6.997333 20.536889 14.449778 10.126222 7.509333 19.797334 15.473778 9.728 7.964444 19.057777 16.384 9.329778 8.476444 18.204445 17.351111t17.351111 18.204445q8.419556 9.329778 16.384 19.000888 7.964444 9.728 15.473778 19.854223 7.452444 10.069333 14.449778 20.48 6.997333 10.524444 13.482666 21.276444 6.428444 10.808889 12.344889 21.845333 5.916444 11.093333 11.320889 22.471112 5.347556 11.377778 10.183111 22.983111 4.778667 11.605333 9.045333 23.438222 4.209778 11.832889 7.907556 23.893333 3.640889 11.946667 6.656 24.177778 3.072 12.174222 5.518222 24.519111 2.446222 12.344889 4.323556 24.746667 1.820444 12.458667 3.072 24.974222 1.194667 12.515556 1.820444 25.031111Q1024 499.484444 1024 512z m-73.955556 0q0-83.569778-30.72-161.223111-33.450667-84.366222-97.564444-148.48-64.170667-64.170667-148.48-97.564445Q595.512889 73.955556 512 73.955556q-83.569778 0-161.223111 30.72-84.366222 33.450667-148.48 97.564444-64.170667 64.170667-97.564445 148.48Q73.955556 428.487111 73.955556 512q0 83.569778 30.72 161.223111 33.450667 84.366222 97.564444 148.48 64.170667 64.170667 148.48 97.564445Q428.487111 950.044444 512 950.044444q83.569778 0 161.223111-30.72 84.366222-33.450667 148.48-97.564444 64.170667-64.170667 97.564445-148.48Q950.044444 595.512889 950.044444 512z" fill="#bd34fe" p-id="46157"></path><path d="M199.111111 312.888889h512v512h-512v-512z" fill="#D8D8D8" fill-opacity=".01" p-id="46158"></path><path d="M548.181333 814.250667l-100.693333-232.675556a17.635556 17.635556 0 0 0-8.988444-9.159111L209.635556 471.04c-15.303111-6.826667-13.482667-29.297778 2.673777-33.450667l476.842667-124.131555a17.635556 17.635556 0 0 1 21.333333 21.959111l-129.251555 476.444444a17.521778 17.521778 0 0 1-32.995556 2.389334z" fill="#bd34fe" p-id="46159"></path></svg>