<?xml version="1.0" encoding="UTF-8"?>
<svg width="20px" height="20px" viewBox="0 0 20 20" version="1.1" xmlns="http://www.w3.org/2000/svg" xmlns:xlink="http://www.w3.org/1999/xlink">
    <title>icon/问号</title>
    <g id="页面-1" stroke="none" stroke-width="1" fill="none" fill-rule="evenodd" opacity="0.5">
        <g id="数据中心-默认态所有作品总览" transform="translate(-367.000000, -190.000000)" fill-rule="nonzero">
            <g id="编组-28" transform="translate(264.000000, 189.000000)">
                <g id="-mockplus-" transform="translate(103.000000, 1.000000)">
                    <g id="icon/问号" transform="translate(3.000000, 3.000000)">
                        <path d="M7,0.5 C3.4098291,0.5 0.5,3.4098291 0.5,7 C0.5,10.5901709 3.4098291,13.5 7,13.5 C10.5901709,13.5 13.5,10.5901709 13.5,7 C13.5,3.4098291 10.5901709,0.5 7,0.5 Z" id="路径" stroke="#9C9C9C"></path>
                        <path d="M6.94952754,9.23333656 C6.93412322,9.23333656 6.91871891,9.23168656 6.90332748,9.23003656 L6.90332747,9.23003656 C6.64831194,9.20456607 6.46204606,8.97745993 6.48697269,8.72239026 C6.55022706,8.07888951 7.02157332,7.55968032 7.54132392,7.03992971 C8.37292489,6.20888304 8.3866792,5.94432844 8.40097492,5.66493671 L8.40097492,5.66493669 C8.41626309,5.33352865 8.29291797,5.01071093 8.06053312,4.77393566 L8.06053315,4.77393568 C7.78701697,4.48889141 7.40892418,4.32795821 7.01387763,4.32843517 L7.01167333,4.32843517 L7.01167325,4.32843517 C6.24799436,4.33114977 5.62992555,4.95019972 5.62841735,5.71388248 L5.62841735,5.71388248 C5.62841735,5.97025153 5.420588,6.17808087 5.16421895,6.17808087 C4.90784991,6.17808087 4.70001018,5.97025153 4.70001018,5.71388248 L4.70001018,5.71385199 C4.69818711,5.10072159 4.94134485,4.5122613 5.37544747,4.07926728 L5.37544747,4.07926728 C5.80747727,3.64392201 6.39561787,3.39935563 7.00894937,3.40000393 L7.00894937,3.40000393 C7.66016388,3.39882128 8.28345855,3.66436012 8.73374278,4.13481305 C9.14735186,4.57041355 9.35909351,5.1308728 9.32774348,5.71331059 C9.29585203,6.31061128 9.11270182,6.78086183 8.19749216,7.69607149 C7.73330021,8.16026343 7.44069558,8.50841384 7.41099554,8.81366419 L7.41099555,8.81366409 C7.38780942,9.0512257 7.18824014,9.23248098 6.94954931,9.23276458 L6.94952754,9.23333656 Z M6.37476599,10.5901924 L6.37476599,10.5901973 C6.37329367,10.8985092 6.62203178,11.1496446 6.93034366,11.1511297 C7.23865554,11.152602 7.48979099,10.9038639 7.49127597,10.595552 C7.49127597,10.593766 7.49127597,10.5919799 7.49127597,10.5901938 L7.49127597,10.5901987 C7.48979069,10.2818868 7.23865555,10.033149 6.93034367,10.034621 C6.62412136,10.0360964 6.37624338,10.2839738 6.37476599,10.5901961 L6.37476599,10.5901924 Z" id="形状" fill="#9C9C9C"></path>
                    </g>
                </g>
            </g>
        </g>
    </g>
</svg>