<svg width="24" height="24" viewBox="0 0 24 24" fill="none" xmlns="http://www.w3.org/2000/svg">
<path d="M5.43398 13.578C5.12398 13.578 4.81798 13.546 4.52398 13.484C2.80198 13.122 1.59998 11.804 1.59998 10.282C1.59998 9.87597 1.68398 9.48197 1.84998 9.10997C1.85198 9.10197 1.85598 9.09597 1.85798 9.09197L3.86598 4.59397C3.87198 4.57797 3.87998 4.56397 3.88798 4.54797C4.46598 3.29997 5.72198 2.49597 7.09998 2.49597H16.9C18.286 2.49597 19.548 3.30997 20.122 4.57197C20.136 4.59797 20.148 4.62597 20.16 4.65597L22.146 9.08997C22.314 9.47197 22.4 9.86997 22.4 10.276C22.4 11.8 21.198 13.118 19.474 13.478C18.796 13.62 18.044 13.598 17.368 13.408C16.518 13.168 15.804 12.684 15.334 12.052C14.568 12.944 13.334 13.502 12 13.502C10.666 13.502 9.43797 12.946 8.66997 12.056C8.20197 12.69 7.48198 13.176 6.62398 13.418C6.24198 13.526 5.84198 13.58 5.43398 13.58V13.578ZM2.95798 9.57197C2.95798 9.57197 2.95198 9.58797 2.94998 9.59197C2.85198 9.81197 2.79998 10.044 2.79998 10.284C2.79998 11.234 3.60998 12.068 4.76998 12.312C5.26398 12.416 5.81198 12.4 6.29798 12.262C7.12198 12.03 7.74998 11.494 7.97598 10.826C7.99598 10.768 8.01198 10.716 8.02598 10.652C8.08598 10.388 8.31597 10.196 8.58798 10.186C8.85397 10.178 9.10397 10.348 9.18397 10.608C9.19197 10.636 9.20398 10.662 9.21397 10.69L9.22598 10.722C9.63998 11.668 10.754 12.304 11.998 12.304C13.242 12.304 14.362 11.666 14.772 10.716C14.794 10.668 14.808 10.628 14.822 10.586C14.91 10.332 15.158 10.174 15.424 10.184C15.692 10.2 15.918 10.392 15.974 10.654C15.988 10.716 16.004 10.774 16.02 10.824C16.25 11.49 16.876 12.024 17.692 12.254C18.182 12.392 18.734 12.408 19.224 12.304C20.386 12.062 21.196 11.228 21.196 10.276C21.196 10.038 21.146 9.80397 21.046 9.57797L19.058 5.13597C19.058 5.13597 19.052 5.12197 19.048 5.11397C19.04 5.09797 19.04 5.09797 19.032 5.08197C18.656 4.23997 17.818 3.69597 16.896 3.69597H7.09598C6.17397 3.69597 5.33398 4.23997 4.95798 5.08397C4.95198 5.09797 4.94398 5.11197 4.93798 5.12597L2.95398 9.57397L2.95798 9.57197Z" fill="black"/>
<path d="M12 21.492C7.93602 21.492 4.57802 18.92 4.35602 15.636C4.33402 15.306 4.58402 15.02 4.91402 14.996C5.24602 14.972 5.53002 15.224 5.55402 15.554C5.73402 18.21 8.56602 20.292 12 20.292C15.434 20.292 18.266 18.212 18.446 15.554C18.468 15.224 18.752 14.974 19.086 14.996C19.416 15.018 19.666 15.304 19.644 15.636C19.422 18.92 16.064 21.492 12 21.492Z" fill="black"/>
</svg>
